HIERARCHY
ROOT joint_0
{
	OFFSET -212.520721 120.562408 434.227997
	CHANNELS 6 Xposition Yposition Zposition Zrotation Yrotation Xrotation 
	JOINT joint_1
	{
		OFFSET 0.119549 -28.870838 -4.186779
		CHANNELS 3 Zrotation Yrotation Xrotation
		JOINT joint_2
		{
			OFFSET 0.103609 1.856164 10.547157
			CHANNELS 3 Zrotation Yrotation Xrotation
			JOINT joint_3
			{
				OFFSET 43.449646 -0.000025 -0.000009
				CHANNELS 3 Zrotation Yrotation Xrotation
				JOINT joint_4
				{
					OFFSET 42.301064 0.000007 -0.000009
					CHANNELS 3 Zrotation Yrotation Xrotation
					JOINT joint_5
					{
						OFFSET 17.319788 -0.000002 -0.000001
						CHANNELS 3 Zrotation Yrotation Xrotation
						End Site
						{
							OFFSET 0.000000 0.000000 0.000000
						}
					}
				}
			}
		}
		JOINT joint_6
		{
			OFFSET 0.103578 1.855966 -10.546992
			CHANNELS 3 Zrotation Yrotation Xrotation
			JOINT joint_7
			{
				OFFSET 43.445827 -0.000024 0.000008
				CHANNELS 3 Zrotation Yrotation Xrotation
				JOINT joint_8
				{
					OFFSET 42.313103 0.000007 0.000010
					CHANNELS 3 Zrotation Yrotation Xrotation
					JOINT joint_9
					{
						OFFSET 17.319389 -0.000002 0.000002
						CHANNELS 3 Zrotation Yrotation Xrotation
						End Site
						{
							OFFSET 0.000000 0.000000 0.000000
						}
					}
				}
			}
		}
		JOINT joint_10
		{
			OFFSET 6.902072 -2.607111 0.000001
			CHANNELS 3 Zrotation Yrotation Xrotation
			JOINT joint_11
			{
				OFFSET 12.585372 0.000007 0.000001
				CHANNELS 3 Zrotation Yrotation Xrotation
				JOINT joint_12
				{
					OFFSET 12.328756 -0.000005 0.000000
					CHANNELS 3 Zrotation Yrotation Xrotation
					JOINT joint_13
					{
						OFFSET 25.816053 -0.000004 0.000000
						CHANNELS 3 Zrotation Yrotation Xrotation
						JOINT joint_14
						{
							OFFSET 11.748008 0.000002 -0.000000
							CHANNELS 3 Zrotation Yrotation Xrotation
							End Site
							{
								OFFSET 0.000000 0.000000 0.000000
							}
						}
					}
					JOINT joint_15
					{
						OFFSET 19.731825 -1.479966 6.001402
						CHANNELS 3 Zrotation Yrotation Xrotation
						JOINT joint_16
						{
							OFFSET 11.301182 -0.000014 -0.000008
							CHANNELS 3 Zrotation Yrotation Xrotation
							JOINT joint_17
							{
								OFFSET 32.960190 0.000014 0.000011
								CHANNELS 3 Zrotation Yrotation Xrotation
								JOINT joint_18
								{
									OFFSET 25.219484 0.000086 -0.000204
									CHANNELS 3 Zrotation Yrotation Xrotation
									End Site
									{
										OFFSET 0.000000 0.000000 0.000000
									}
								}
							}
						}
					}
					JOINT joint_19
					{
						OFFSET 19.732548 -1.479957 -6.001790
						CHANNELS 3 Zrotation Yrotation Xrotation
						JOINT joint_20
						{
							OFFSET 11.303510 -0.000015 0.000005
							CHANNELS 3 Zrotation Yrotation Xrotation
							JOINT joint_21
							{
								OFFSET 32.942387 0.000012 -0.000010
								CHANNELS 3 Zrotation Yrotation Xrotation
								JOINT joint_22
								{
									OFFSET 25.217804 0.000083 0.000194
									CHANNELS 3 Zrotation Yrotation Xrotation
									End Site
									{
										OFFSET 0.000000 0.000000 0.000000
									}
								}
							}
						}
					}
				}
			}
		}
	}
}
MOTION
Frames: 16
Frame Time: 0.016667
80.304214 77.524544 478.138916 180.000000 -13.735389 180.000000 89.276077 -14.833811 82.856644 155.516068 -5.992769 148.419342 1.646498 3.763955 -53.460278 -6.183662 -1.437080 80.876595 0.000016 0.003099 21.479311 -165.071594 1.474317 149.381638 0.376943 -1.259541 -46.596832 2.800765 -0.459790 82.525085 -0.000012 -0.003100 21.477139 0.295230 0.711118 8.633929 -0.490454 -0.647031 4.787488 -0.722317 -0.945061 5.829237 -1.181975 -2.667653 9.424922 2.999549 -2.845044 -8.266614 13.756091 -76.695793 164.183914 24.607058 42.761929 -8.894438 0.006650 -11.932019 -44.778290 16.183849 -9.135861 2.057849 13.259651 75.745659 -168.587341 -19.290005 -46.028519 -11.851129 -0.668103 13.479370 -50.361408 -12.650143 12.621899 5.074826 
79.177460 77.454994 476.166473 180.000000 -14.375746 180.000000 89.509346 -15.113371 82.812492 155.454468 -6.010272 148.331543 1.329449 3.622561 -54.287968 -6.621190 -1.556103 81.267982 0.000016 0.003100 21.479229 -164.964920 1.189399 149.073044 0.414965 -1.263357 -45.860947 1.916276 -0.125624 82.861382 -0.000013 -0.003099 21.477020 0.389951 0.777996 8.546095 -0.626576 -0.467329 4.664807 -0.714989 -0.881956 5.910954 -1.348788 -2.222583 9.164730 3.195655 -3.062676 -8.158110 13.960074 -76.710968 163.866104 24.512266 41.891678 -9.272461 0.143306 -11.780594 -45.031288 16.813520 -8.480233 1.791899 12.195961 75.795204 -169.710419 -19.777870 -46.715294 -10.871167 -0.601090 13.664909 -50.489853 -12.309820 11.559165 5.415413 
78.028633 77.378960 474.239502 180.000000 -14.939964 180.000000 89.599068 -15.160738 82.923584 154.927246 -6.421148 148.566925 0.948906 3.571748 -54.520267 -6.630407 -1.646538 81.521141 0.000016 0.003100 21.479189 -164.759491 1.199295 148.490891 0.433869 -1.337562 -45.339905 1.515043 0.193520 83.189445 -0.000013 -0.003099 21.476784 0.494611 0.754395 8.508881 -0.686009 -0.354378 4.577127 -0.782953 -0.819362 5.889435 -1.558677 -2.111207 8.823632 3.189767 -2.829788 -8.164810 13.831326 -76.582222 163.927963 23.918398 41.419315 -9.732259 0.165924 -11.691005 -44.911251 17.183445 -8.075289 1.706265 11.655378 75.990204 -170.339920 -19.176262 -46.992863 -11.135276 -0.348179 13.672000 -50.522446 -12.140469 11.163655 5.418269 
76.865005 77.294449 472.372772 180.000000 -15.441249 180.000000 89.471489 -14.879676 83.083054 154.445724 -6.839835 148.730026 0.609212 3.633973 -54.894325 -6.368401 -1.750529 81.800606 0.000016 0.003100 21.478840 -164.881348 1.354179 148.172913 0.538951 -1.533079 -45.371838 1.704293 0.374612 83.560455 -0.000013 -0.003099 21.475946 0.534531 0.687996 8.476925 -0.634079 -0.360072 4.475918 -0.958669 -0.797932 5.750039 -1.702238 -2.140086 8.423697 3.280513 -2.494635 -7.854025 12.569488 -76.518394 165.193710 23.419638 41.589996 -9.933432 0.119249 -11.722717 -44.854877 17.262840 -8.339925 1.591162 11.407909 76.135216 -170.698013 -17.493387 -47.049995 -12.499167 0.058321 13.674081 -50.149288 -12.197018 11.263359 5.221850 
75.731697 77.206635 470.580994 180.000000 -15.872013 180.000000 89.263855 -14.624532 83.119202 154.302063 -7.019526 148.336456 0.422239 3.664675 -54.798450 -6.201284 -1.781443 81.747818 0.000016 0.003100 21.478821 -165.171036 1.211579 148.105530 0.666166 -1.705727 -45.816849 1.728554 0.453457 83.597382 -0.000013 -0.003098 21.475142 0.542220 0.632431 8.460462 -0.597042 -0.412957 4.311613 -1.046666 -0.815178 5.569920 -1.776338 -2.041989 8.209625 3.502697 -2.177621 -7.623838 10.968281 -76.480843 166.808609 23.440372 41.964462 -9.658694 0.129808 -11.809562 -44.750099 17.571390 -8.960459 1.402654 10.983372 76.202606 -171.236282 -16.277472 -47.079201 -13.119573 0.373851 13.765342 -50.173286 -12.090791 11.395486 5.121514 
74.655472 77.121284 468.868103 180.000000 -16.238590 180.000000 89.113815 -14.493063 82.972839 154.260239 -7.207197 147.719955 0.307944 3.649926 -53.931473 -6.146996 -1.675655 81.360573 0.000016 0.003100 21.479372 -165.298813 1.110026 148.302277 0.854528 -1.810174 -46.202785 1.408708 0.456755 83.428436 -0.000013 -0.003098 21.474436 0.525993 0.589397 8.448739 -0.527200 -0.448711 4.126816 -1.055016 -0.796900 5.362815 -1.892607 -1.920430 7.990367 3.783538 -2.009311 -7.464273 9.715154 -76.431801 168.050873 23.639893 42.515270 -9.288032 0.227261 -11.807053 -44.384903 17.930090 -9.619864 1.073548 10.934371 76.349365 -171.382263 -15.466343 -47.092514 -13.321538 0.557017 13.881681 -50.786335 -11.915441 11.488370 5.119442 
73.659050 77.032890 467.232239 180.000000 -16.559322 180.000000 89.118126 -14.505948 82.667366 154.153351 -7.436238 147.317276 0.332970 3.696411 -53.182495 -6.223716 -1.579462 80.904877 0.000016 0.003100 21.479940 -165.249008 1.038729 148.835297 1.041445 -1.883029 -46.323090 1.144648 0.306232 83.112404 -0.000013 -0.003098 21.473686 0.505226 0.532927 8.390123 -0.432931 -0.471875 3.979912 -1.036846 -0.795406 5.173320 -2.017385 -1.841261 7.856726 4.318881 -1.817677 -7.399898 8.638764 -76.280884 169.115555 23.276730 42.946201 -9.396569 0.320290 -11.687077 -43.852425 18.135435 -10.011648 0.718301 11.808061 76.592926 -170.555664 -14.365641 -47.065948 -13.642448 0.772796 13.997754 -51.179226 -11.896152 11.617824 5.135099 
72.761032 76.939133 465.666138 180.000000 -16.859356 180.000000 89.154732 -14.659576 82.301056 154.094421 -7.654014 146.936142 0.400086 3.727525 -52.485069 -6.433812 -1.515918 80.424515 0.000016 0.003100 21.480497 -164.896896 0.955436 149.278961 1.188860 -1.954698 -46.474461 1.166450 0.044817 82.698441 -0.000013 -0.003098 21.472979 0.504358 0.488732 8.307108 -0.344469 -0.507268 3.795962 -1.033622 -0.774477 5.031699 -2.068370 -1.710313 7.678489 4.947812 -1.559144 -7.473194 7.704584 -76.006065 170.030273 22.766960 43.162495 -9.448561 0.397818 -11.445760 -43.197353 18.202263 -9.989798 0.425050 12.975079 76.926994 -169.394363 -12.947630 -46.981247 -13.986190 1.004093 14.049541 -51.383499 -11.896734 11.700661 5.095295 
71.947433 76.841698 464.144379 180.000000 -17.155512 180.000000 89.194611 -14.713707 82.001053 154.023544 -7.923315 146.451981 0.534143 3.710145 -51.704887 -6.604150 -1.530801 79.917000 0.000016 0.003100 21.481022 -164.384430 0.899092 149.736877 1.291191 -2.018633 -46.435265 1.279057 -0.112892 82.327377 -0.000013 -0.003098 21.472366 0.517596 0.458709 8.237241 -0.301840 -0.508412 3.661512 -1.022668 -0.729923 4.904390 -2.063013 -1.489022 7.471436 5.611657 -1.281359 -7.659134 7.341941 -75.673340 170.371979 22.307983 43.280472 -9.474537 0.501716 -11.240131 -42.510540 18.197121 -9.646943 0.243453 13.899811 77.264984 -168.452835 -11.562568 -46.767570 -14.200378 1.253222 14.019722 -51.498798 -12.141316 11.630495 5.117193 
71.204239 76.741661 462.653412 180.000000 -17.442680 180.000000 89.227432 -14.754850 81.598145 153.684067 -8.235757 145.894226 0.759334 3.678150 -50.799393 -6.817322 -1.512955 79.323036 0.000016 0.003100 21.481476 -163.725235 0.769163 150.192764 1.380539 -2.058723 -46.216415 1.446713 -0.228342 82.033203 -0.000013 -0.003097 21.471668 0.533397 0.430400 8.166094 -0.266896 -0.439254 3.572675 -0.995947 -0.656227 4.790199 -2.111022 -1.231715 7.126452 6.215314 -1.048786 -7.935831 7.586332 -75.335320 170.112823 21.879482 43.447639 -9.368593 0.707373 -11.097221 -41.805874 18.300789 -9.256867 0.059469 14.474449 77.610153 -167.861588 -10.441532 -46.531986 -14.245199 1.485747 13.937716 -51.626312 -12.383740 11.479819 5.183356 
70.530907 76.638306 461.186035 180.000000 -17.723660 180.000000 89.274902 -14.795234 81.001556 153.229080 -8.551195 145.262421 0.980728 3.606710 -49.999104 -7.119609 -1.468953 78.730270 0.000016 0.003100 21.481583 -163.125488 0.565003 150.425385 1.487725 -2.085564 -45.916164 1.692463 -0.421392 81.713150 -0.000014 -0.003097 21.470667 0.548883 0.405316 8.103949 -0.203020 -0.339101 3.542948 -0.984634 -0.589018 4.693005 -2.097580 -0.943338 6.802639 6.726149 -0.941699 -8.232981 7.868512 -75.051025 169.855804 21.640167 43.652023 -9.078150 0.936670 -11.029616 -41.144215 18.393206 -8.819603 -0.146459 14.354043 78.034241 -167.975723 -9.657063 -46.312187 -14.197632 1.475380 13.857661 -51.992069 -12.619279 11.539032 5.199287 
69.921165 76.534706 459.724365 180.000000 -17.993465 180.000000 89.332527 -14.721809 80.316528 152.826263 -8.688270 144.536560 1.148908 3.540288 -49.124706 -7.431146 -1.463273 78.427513 0.000016 0.003100 21.481194 -162.616287 0.249598 150.510345 1.627803 -2.112806 -46.020027 1.895277 -0.701829 81.267799 -0.000014 -0.003096 21.469542 0.538300 0.384797 8.083936 -0.128407 -0.236094 3.481537 -0.998505 -0.509601 4.602497 -2.010256 -0.738872 6.448122 7.129636 -0.745814 -8.511567 7.538807 -74.881859 170.267181 21.444292 43.884422 -8.838256 1.099578 -10.987952 -40.511505 18.248230 -8.294483 -0.291381 13.979845 78.404160 -168.353195 -9.414718 -46.005497 -13.775390 1.353666 13.746731 -52.278389 -12.858247 11.951101 5.361695 
69.355377 76.428345 458.230682 180.000000 -18.240227 180.000000 89.374947 -14.451894 79.687012 152.386429 -8.776261 143.960510 1.257405 3.514401 -48.351280 -7.540317 -1.399792 78.195915 0.000015 0.003099 21.480167 -162.312088 0.038461 150.389771 1.725664 -2.142551 -46.554432 2.044472 -0.997492 80.710609 -0.000013 -0.003096 21.468437 0.511837 0.366320 8.080268 -0.046934 -0.151241 3.475672 -1.014904 -0.406071 4.554413 -2.058222 -0.663411 6.014360 7.399482 -0.618325 -8.746531 6.745878 -74.863228 171.187775 21.096035 44.220287 -9.026711 1.117624 -10.930729 -39.784367 17.914057 -7.803619 -0.312197 13.650842 78.697662 -168.681137 -9.717516 -45.747631 -12.999285 1.249081 13.701598 -52.321316 -13.019308 12.691302 5.547026 
68.829796 76.319160 456.686035 180.000000 -18.474073 180.000000 89.361069 -13.938757 79.521049 152.211639 -9.068568 143.533508 1.530985 3.495649 -47.631561 -7.352989 -1.262214 77.914162 0.000015 0.003100 21.479530 -162.451675 0.083128 150.103714 1.821530 -2.143315 -47.244297 2.152735 -1.131707 80.197792 -0.000013 -0.003095 21.468025 0.470888 0.324641 8.064790 0.027847 -0.100909 3.578205 -0.981495 -0.249787 4.589913 -2.329389 -0.712671 5.637651 7.483518 -0.710860 -8.957587 5.460776 -75.038452 172.670761 20.565100 44.500515 -9.795931 0.976193 -10.781593 -38.997715 17.557194 -7.572260 -0.349527 13.613014 78.976707 -168.716782 -10.569746 -45.466072 -11.918536 1.072543 13.766087 -52.214668 -13.053950 13.533557 5.710484 
68.344566 76.199745 455.062164 180.000000 -18.720507 180.000000 89.277794 -13.182194 79.771309 152.148865 -9.402328 143.501190 1.894329 3.444629 -47.341022 -6.970826 -1.010275 77.951370 0.000014 0.003100 21.478964 -162.918900 0.227475 150.139618 1.881561 -2.182933 -48.083073 2.280817 -1.123758 79.897926 -0.000013 -0.003096 21.468597 0.415894 0.278882 8.042971 0.212982 -0.078578 3.792338 -0.824074 -0.185858 4.662829 -2.517138 -1.178322 5.366477 6.943438 -1.095371 -9.056133 3.786630 -75.358330 174.585831 19.278175 44.738529 -10.970705 0.738149 -10.537635 -38.535137 17.035507 -7.582076 -0.321765 14.217208 79.329704 -168.090790 -11.420673 -45.049149 -10.821784 0.972942 13.962296 -52.203869 -13.512507 14.285794 5.803570 
67.855141 76.073685 453.321838 180.000000 -19.003317 180.000000 89.157646 -12.361564 80.344162 152.030869 -9.875860 144.391220 1.861388 3.364281 -47.460472 -6.344265 -0.711960 78.751602 0.000013 0.003100 21.478317 -163.500336 0.581983 149.725327 2.042755 -2.232167 -49.318142 2.293236 -0.853832 79.994514 -0.000012 -0.003096 21.470734 0.351099 0.240907 8.055638 0.479095 -0.016302 4.117937 -0.627620 -0.320725 4.810332 -2.292932 -1.705016 4.736329 5.940521 -1.501711 -9.416249 2.374879 -75.874054 176.192291 17.044233 44.513927 -13.027800 0.399852 -10.312132 -38.349937 16.621525 -7.335855 0.110727 15.300965 79.602951 -166.952469 -11.859367 -45.064461 -10.299972 0.844869 14.307845 -52.612270 -14.783925 15.188487 5.891697 
